<svg width="64" height="64" viewBox="0 0 64 64" fill="none" xmlns="http://www.w3.org/2000/svg">
<path d="M40.2 17.853C42.8671 19.1957 44.7 21.984 44.7 25.2059C44.7 28.4278 42.8671 31.216 40.2 32.5588M43.8 42.1034C46.5206 43.3506 48.9705 45.3832 51 48M15 48C18.5037 43.4823 23.2605 40.7059 28.5 40.7059C33.7395 40.7059 38.4963 43.4823 42 48M36.6 25.2059C36.6 29.7379 32.9735 33.4118 28.5 33.4118C24.0265 33.4118 20.4 29.7379 20.4 25.2059C20.4 20.6739 24.0265 17 28.5 17C32.9735 17 36.6 20.6739 36.6 25.2059Z" stroke="#003262" stroke-width="3.33333" stroke-linecap="round" stroke-linejoin="round"/>
</svg>
